<?xml version="1.0" encoding="UTF-8" standalone="no"?>
<!DOCTYPE svg PUBLIC "-//W3C//DTD SVG 1.1//EN" "http://www.w3.org/Graphics/SVG/1.1/DTD/svg11.dtd">
<!-- Created with Vectornator (http://vectornator.io/) -->
<svg height="100%" stroke-miterlimit="10" style="fill-rule:nonzero;clip-rule:evenodd;stroke-linecap:round;stroke-linejoin:round;" version="1.1" viewBox="0 0 400 400" width="100%" xml:space="preserve" xmlns="http://www.w3.org/2000/svg" xmlns:xlink="http://www.w3.org/1999/xlink">
<defs>
<linearGradient gradientTransform="matrix(0.974956 0 0 0.974956 5.26481 126.583)" gradientUnits="userSpaceOnUse" id="LinearGradient" x1="199.778" x2="199.76" y1="147.108" y2="274.087">
<stop offset="0" stop-color="#d6d85a"/>
<stop offset="1" stop-color="#000000"/>
</linearGradient>
</defs>
<clipPath id="ArtboardFrame">
<rect height="400" width="400" x="0" y="0"/>
</clipPath>
<g clip-path="url(#ArtboardFrame)" id="图层-8">
<g opacity="1">
<path d="M-1.10134e-13 200C-1.10134e-13 89.5431 89.5431-2.13163e-14 200-2.13163e-14C310.457-2.13163e-14 400 89.5431 400 200C400 310.457 310.457 400 200 400C89.5431 400-1.10134e-13 310.457-1.10134e-13 200Z" fill="#0a1e2f" fill-rule="nonzero" opacity="1" stroke="none"/>
<g opacity="1">
<path d="M200.265 269.907C180.221 271.939 190.982 286.196 188.307 287.866C182.765 291.325 191.051 296.486 187.224 295.574C183.396 294.663 180.17 286.537 175.432 283.074C170.693 279.611 167.717 274.074 163.89 274.074C160.063 274.074 157.889 279.543 154.973 279.907C152.057 280.272 146.707 285.688 148.931 292.866C152.941 305.806 166.25 297.049 170.807 299.783C175.363 302.516 187.775 308.888 185.224 312.533C182.672 316.178 193.974 323.825 193.974 323.825C193.974 323.825 194.13 331.311 193.765 337.325C193.401 343.339 200.265 346.617 200.265 346.617C200.265 346.617 207.13 343.339 206.765 337.325C206.401 331.311 206.599 323.825 206.599 323.825C206.599 323.825 217.9 316.178 215.349 312.533C212.797 308.888 225.21 302.516 229.766 299.783C234.322 297.049 247.59 305.806 251.599 292.866C253.823 285.688 248.515 280.272 245.599 279.907C242.683 279.543 240.51 274.074 236.682 274.074C232.855 274.074 229.879 279.611 225.141 283.074C220.402 286.537 217.176 294.663 213.349 295.574C209.522 296.486 217.808 291.325 212.266 287.866C209.59 286.196 220.309 271.939 200.265 269.907Z" fill="url(#LinearGradient)" fill-rule="nonzero" opacity="1" stroke="none"/>
<path d="M242.002 284.173C242.002 284.173 249.106 292.066 249.698 296.013C250.29 299.959 246.347 323.261 241.163 328.992C241.163 328.992 238.59 305.09 234.54 295.116C232.679 290.53 241.973 284.223 242.002 284.173Z" fill="#e4eff5" fill-rule="nonzero" opacity="1" stroke="none"/>
<path d="M158.558 284.173C158.558 284.173 151.454 292.066 150.862 296.013C150.27 299.959 154.213 323.261 159.397 328.992C159.397 328.992 161.971 305.09 166.02 295.116C167.882 290.53 158.588 284.223 158.558 284.173Z" fill="#e4eff5" fill-rule="nonzero" opacity="1" stroke="none"/>
<path d="M200.22 368.658C200.22 368.658 205.441 359.605 207.422 341.632C207.525 340.697 207.465 339.248 206.733 338.602C206.733 338.602 204.944 342.479 200.293 342.393C195.217 342.3 193.833 338.884 193.833 338.884C193.833 338.884 192.886 340.587 193.072 342.033C193.809 347.749 197.085 361.564 200.22 368.658Z" fill="#e4eff5" fill-rule="nonzero" opacity="1" stroke="none"/>
<path d="M200.307 320.417C200.307 320.417 189.79 295.411 191.682 291.092C193.573 286.773 195.906 278.981 200.117 278.767C204.329 278.552 208.849 290.72 208.849 290.72C210.554 295.371 203.342 314.534 200.307 320.417Z" fill="#e4eff5" fill-rule="nonzero" opacity="1" stroke="none"/>
</g>
<path d="M306.394 319.283C306.394 319.283 319.42 293.053 329.939 290.648C329.939 290.648 321.234 292.323 319.601 295.315C319.601 295.315 346.853 249.921 355.331 245.957C373.106 237.644 374.243 174.759 374.306 165.724C374.306 165.724 369.122 178.438 362.763 185.788C362.763 185.788 364.799 154.209 360.303 143.55C355.951 133.23 352.487 122.207 348.087 118.779C348.087 118.779 352.985 141.853 351.951 147.143C350.917 152.432 333.181 68.9014 291.967 50.1053C291.967 50.1053 307.008 74.9996 307.41 82.5634C307.41 82.5634 303.878 75.0387 297.992 72.1617C297.992 72.1617 314.522 109.696 315.944 118.761C315.944 118.761 311.653 110.04 302.424 104.485C302.424 104.485 320.05 135.284 318.323 142.823C318.323 142.823 309.987 120.426 301.517 116.068C301.517 116.068 312.341 146.618 312.048 153.985C312.048 153.985 311.166 147.095 306.369 143.024C306.369 143.024 307.618 161.084 311.73 169.834C311.73 169.834 309.619 176.93 309.612 181.986C309.612 181.986 307.125 180.562 306.51 173.574C306.51 173.574 302.196 210.449 303.851 217.451C303.851 217.451 284.06 252.372 289.934 263.465C295.807 274.557 298.146 307.449 306.394 319.283Z" fill="#68c40c" fill-rule="nonzero" opacity="1" stroke="#68c40c" stroke-linecap="butt" stroke-linejoin="round" stroke-width="2"/>
<path d="M93.5668 319.283C93.5668 319.283 80.5411 293.053 70.0215 290.648C70.0215 290.648 78.7266 292.323 80.3601 295.315C80.3601 295.315 53.1077 249.921 44.6296 245.957C26.8552 237.644 25.7173 174.759 25.6552 165.724C25.6552 165.724 30.8389 178.438 37.1981 185.788C37.1981 185.788 35.1621 154.209 39.6574 143.55C44.01 133.23 47.4737 122.207 51.8734 118.779C51.8734 118.779 46.9759 141.853 48.0098 147.143C49.0438 152.432 66.7794 68.9014 107.994 50.1053C107.994 50.1053 92.9533 74.9996 92.5509 82.5634C92.5509 82.5634 96.0829 75.0387 101.969 72.1617C101.969 72.1617 85.4387 109.696 84.017 118.761C84.017 118.761 88.3079 110.04 97.5368 104.485C97.5368 104.485 79.9108 135.284 81.6383 142.823C81.6383 142.823 89.9742 120.426 98.4441 116.068C98.4441 116.068 87.6202 146.618 87.9131 153.985C87.9131 153.985 88.7945 147.095 93.5918 143.024C93.5918 143.024 92.3424 161.084 88.2304 169.834C88.2304 169.834 90.3421 176.93 90.3492 181.986C90.3492 181.986 92.836 180.562 93.4505 173.574C93.4505 173.574 97.7652 210.449 96.1095 217.451C96.1095 217.451 115.9 252.372 110.027 263.465C104.153 274.557 101.815 307.449 93.5668 319.283Z" fill="#68c40c" fill-rule="nonzero" opacity="1" stroke="#68c40c" stroke-linecap="butt" stroke-linejoin="round" stroke-width="2"/>
<g opacity="1">
<path d="M197.348 76.9451C197.348 76.9451 203.313 73.4915 204.22 72.8287C205.127 72.1659 208.162 67.4215 208.65 66.8285C209.139 66.2354 210.046 68.0146 213.22 64.8052C216.395 61.5958 214.651 59.1538 215.697 56.991C215.697 56.991 219.371 54.5965 219.93 53.6639C219.93 53.6639 223.043 73.3283 232.378 84.1303C248.401 102.67 268.569 139.834 246.086 162.294C246.086 162.294 257.82 137.835 248.04 121.588C248.04 121.588 259.734 157.628 230.075 177.816C230.075 177.816 242.558 168.751 245.659 140.787C245.659 140.787 239.451 168.832 228.465 174.854C228.465 174.854 240.596 155.583 238.846 145.004C238.105 140.521 240.993 153.748 222.468 180.523C222.468 180.523 232.389 162.324 231.292 149.964C231.292 149.964 224.226 176.453 215.082 185.789C214.65 186.23 225.019 166.445 223.862 156.268C223.668 154.561 219.929 190.467 201.65 191.031C201.036 191.05 206.41 189.147 208.607 183.055C208.749 182.664 206.646 190.14 197.147 191.27C195.411 191.476 191.188 180.725 191.188 180.725C191.188 180.725 195.695 191.359 194.463 191.51C194.463 191.51 181.782 189.752 179.241 177.845C178.882 176.165 180.922 188.197 180.922 188.197C180.922 188.197 173.324 186.623 170.005 172.986C169.989 172.92 172.171 184.128 172.171 184.128C172.171 184.128 160.585 181.818 162.57 163.433C162.767 161.609 164.429 181.19 164.429 181.19C164.429 181.19 152.856 169.564 160.808 135.734C160.808 135.734 152.481 161.85 159.34 178.926C159.34 178.926 140.101 172.317 164.168 115.746C164.168 115.746 152.375 125.825 149.074 168.745C149.074 168.745 140.14 150.406 154.854 120.432C154.854 120.432 148.482 127.16 144.747 147.072C144.747 147.072 141.697 129.829 154.611 116.313C161.965 108.616 167.768 98.4133 170.923 91.3139C174.078 84.2146 179.089 71.5425 179.867 61.3698C179.867 61.3698 184.374 66.5195 185.069 68.1443C185.495 69.1405 186.05 68.1253 187.295 68.9306" fill="#d32297" fill-rule="nonzero" opacity="1" stroke="#d32297" stroke-linecap="butt" stroke-linejoin="round" stroke-width="0.1"/>
<path d="M175.867 43.5296C175.867 43.5296 178.405 36.7637 180.398 34.7702C182.392 32.7766 188.614 25.2858 197.252 24.8629C205.891 24.4401 217.55 31.0852 218.275 40.3279C219 49.5706 217.704 49.2081 216.755 49.7662C215.807 50.3243 210.115 51.552 209.78 52.9471C209.78 52.9471 208.608 62.6574 204.646 64.3315C204.646 64.3315 207.994 59.588 207.826 46.5853C207.826 46.5853 205.65 51.2172 202.86 52.1101C202.86 52.1101 203.753 52.6123 203.083 48.9291C203.083 48.9291 202.413 51.6636 199.902 53.0588C199.902 53.0588 199.958 52.1101 199.679 50.4359C199.679 50.4359 198.451 54.2307 197 55.0678C197 55.0678 198.06 48.4827 196.889 46.1946C196.889 46.1946 197.223 52.6123 195.94 54.7329C194.656 56.8536 194.545 57.1884 194.656 59.03C194.656 59.03 190.415 55.5142 190.08 52.4449C190.08 52.4449 188.852 53.6168 189.578 55.1794C189.578 55.1794 186.341 54.1191 185.392 51.4962C185.392 51.4962 185.246 53.9067 186.062 54.5446C186.062 54.5446 183.587 52.6308 183.255 51.3804C183.255 51.3804 182.158 54.9785 183.562 56.6882C183.562 56.6882 178.106 54.4356 177.329 52.1056C176.552 49.7756 175.554 44.8139 175.867 43.5296Z" fill="#d32297" fill-rule="nonzero" opacity="1" stroke="#d32297" stroke-linecap="butt" stroke-linejoin="round" stroke-width="0.1"/>
</g>
<path d="M200.048 85.8645C194.207 85.8645 189.471 90.5998 189.471 96.4416C189.471 99.4363 190.727 102.127 192.727 104.051L118.148 233.209C117.144 232.893 116.094 232.679 114.985 232.679C109.143 232.679 104.408 237.414 104.408 243.256C104.408 249.098 109.143 253.833 114.985 253.833C120.103 253.833 124.369 250.196 125.348 245.367L275.241 245.367C276.304 250.087 280.508 253.619 285.549 253.619C291.391 253.619 296.126 248.884 296.126 243.042C296.126 237.2 291.391 232.465 285.549 232.465C284.416 232.465 283.344 232.693 282.321 233.023L207.676 103.744C209.496 101.844 210.625 99.2796 210.625 96.4416C210.625 90.5998 205.89 85.8645 200.048 85.8645ZM204.867 105.8L279.232 234.604C276.949 236.317 275.407 238.918 275.083 241.907L125.423 241.907C125.046 238.98 123.509 236.434 121.246 234.762L195.592 106.005C196.949 106.638 198.452 107.019 200.048 107.019C201.796 107.019 203.414 106.551 204.867 105.8Z" fill="#ffffff" fill-rule="nonzero" opacity="1" stroke="#ffffff" stroke-linecap="butt" stroke-linejoin="round" stroke-width="1"/>
<path d="M198.547 185.237L209.914 202.19C213.065 206.877 215.402 209.84 216.926 211.077C218.449 212.314 220.383 212.997 222.726 213.127L222.726 214.573L199.992 214.573L199.992 213.127C201.502 213.101 202.622 212.945 203.351 212.659C203.898 212.424 204.348 212.066 204.699 211.584C205.051 211.103 205.226 210.614 205.226 210.12C205.226 209.521 205.109 208.922 204.875 208.323C204.693 207.88 203.976 206.734 202.726 204.885L193.742 191.292L182.648 205.51C181.476 207.021 180.773 208.03 180.539 208.538C180.305 209.045 180.187 209.573 180.187 210.12C180.187 210.953 180.539 211.643 181.242 212.19C181.945 212.737 183.286 213.049 185.265 213.127L185.265 214.573L166.476 214.573L166.476 213.127C167.805 212.997 168.95 212.724 169.914 212.307C171.528 211.63 173.065 210.719 174.523 209.573C175.982 208.427 177.648 206.669 179.523 204.299L192.023 188.518L181.594 173.245C178.755 169.104 176.346 166.389 174.367 165.1C172.388 163.811 170.109 163.127 167.531 163.049L167.531 161.604L192.023 161.604L192.023 163.049C189.94 163.127 188.514 163.466 187.746 164.065C186.978 164.664 186.594 165.328 186.594 166.057C186.594 167.021 187.219 168.427 188.469 170.276L196.594 182.424L206.008 170.51C207.101 169.104 207.772 168.14 208.019 167.62C208.267 167.099 208.39 166.565 208.39 166.018C208.39 165.471 208.234 164.989 207.922 164.573C207.531 164.026 207.036 163.642 206.437 163.42C205.838 163.199 204.601 163.075 202.726 163.049L202.726 161.604L221.515 161.604L221.515 163.049C220.031 163.127 218.82 163.362 217.883 163.752C216.476 164.351 215.187 165.159 214.015 166.174C212.844 167.19 211.19 169.065 209.055 171.799L198.547 185.237Z" fill="#ffffff" opacity="1" stroke="none"/>
<path d="M204.801 90.3923L204.801 90.6813C204.415 90.7438 204.072 90.9496 203.77 91.2985C203.551 91.5589 203.225 92.1709 202.793 93.1344L199.145 101.228L198.887 101.228L195.254 92.8063C194.817 91.7907 194.524 91.1943 194.375 91.0173C194.227 90.8402 193.947 90.7282 193.535 90.6813L193.535 90.3923L198.613 90.3923L198.613 90.6813L198.442 90.6813C197.983 90.6813 197.671 90.7386 197.504 90.8532C197.384 90.9313 197.324 91.0459 197.324 91.1969C197.324 91.2907 197.345 91.4014 197.387 91.529C197.428 91.6566 197.569 91.999 197.809 92.5563L200.067 97.8298L202.16 93.1344C202.41 92.5667 202.564 92.1865 202.621 91.9938C202.678 91.8011 202.707 91.6371 202.707 91.5016C202.707 91.3454 202.665 91.2074 202.582 91.0876C202.499 90.9678 202.376 90.8766 202.215 90.8141C201.991 90.7256 201.694 90.6813 201.324 90.6813L201.324 90.3923L204.801 90.3923Z" fill="#0a1e2f" opacity="1" stroke="none"/>
<path d="M117.354 247.377L117.354 247.667L111.815 247.667L111.815 247.377L112.167 247.377C112.474 247.377 112.721 247.323 112.909 247.213C113.044 247.14 113.149 247.015 113.221 246.838C113.279 246.713 113.307 246.385 113.307 245.854L113.307 238.885C113.307 238.344 113.279 238.005 113.221 237.87C113.164 237.734 113.048 237.616 112.874 237.514C112.699 237.413 112.464 237.362 112.167 237.362L111.815 237.362L111.815 237.073L117.354 237.073L117.354 237.362L117.003 237.362C116.695 237.362 116.448 237.417 116.261 237.526C116.125 237.599 116.018 237.724 115.94 237.901C115.883 238.026 115.854 238.354 115.854 238.885L115.854 245.854C115.854 246.396 115.884 246.734 115.944 246.87C116.004 247.005 116.121 247.124 116.296 247.225C116.47 247.327 116.706 247.377 117.003 247.377L117.354 247.377Z" fill="#0a1e2f" opacity="1" stroke="none"/>
<path d="M288.185 247.163L288.185 247.452L282.645 247.452L282.645 247.163L282.997 247.163C283.304 247.163 283.552 247.108 283.739 246.999C283.875 246.926 283.979 246.801 284.052 246.624C284.109 246.499 284.138 246.171 284.138 245.639L284.138 238.671C284.138 238.129 284.109 237.79 284.052 237.655C283.994 237.52 283.879 237.401 283.704 237.299C283.53 237.198 283.294 237.147 282.997 237.147L282.645 237.147L282.645 236.858L288.185 236.858L288.185 237.147L287.833 237.147C287.526 237.147 287.278 237.202 287.091 237.311C286.955 237.384 286.849 237.509 286.77 237.686C286.713 237.811 286.685 238.139 286.685 238.671L286.685 245.639C286.685 246.181 286.714 246.52 286.774 246.655C286.834 246.79 286.951 246.909 287.126 247.01C287.3 247.112 287.536 247.163 287.833 247.163L288.185 247.163Z" fill="#0a1e2f" opacity="1" stroke="none"/>
</g>
</g>
</svg>
