<?xml version="1.0" encoding="UTF-8" standalone="no"?>
<!DOCTYPE svg PUBLIC "-//W3C//DTD SVG 1.1//EN" "http://www.w3.org/Graphics/SVG/1.1/DTD/svg11.dtd">
<!-- Created with Vectornator (http://vectornator.io/) -->
<svg height="100%" stroke-miterlimit="10" style="fill-rule:nonzero;clip-rule:evenodd;stroke-linecap:round;stroke-linejoin:round;" version="1.1" viewBox="0 0 816 300" width="100%" xml:space="preserve" xmlns="http://www.w3.org/2000/svg" xmlns:xlink="http://www.w3.org/1999/xlink">
<defs/>
<g id="图层-1">
<g opacity="1">
<g opacity="1">
<path d="M8 150C8 86.7545 59.2706 35.4839 122.516 35.4839C185.762 35.4839 237.032 86.7545 237.032 150C237.032 213.246 185.762 264.516 122.516 264.516C59.2706 264.516 8 213.246 8 150Z" fill="none" opacity="1" stroke="#010305" stroke-linecap="butt" stroke-linejoin="round" stroke-width="16"/>
<g opacity="1">
<path d="M119.103 113.488C119.103 113.488 126.077 109.45 127.138 108.676C128.198 107.901 131.746 102.354 132.317 101.661C132.888 100.968 133.948 103.048 137.659 99.2956C141.371 95.5437 139.331 92.6889 140.555 90.1604C140.555 90.1604 144.85 87.3612 145.504 86.2709C145.504 86.2709 149.143 109.26 160.056 121.888C178.788 143.562 202.365 187.009 176.081 213.266C176.081 213.266 189.799 184.671 178.365 165.678C178.365 165.678 192.036 207.81 157.364 231.412C157.364 231.412 171.957 220.814 175.582 188.123C175.582 188.123 168.324 220.909 155.481 227.949C155.481 227.949 169.663 205.42 167.618 193.053C166.751 187.812 170.127 203.275 148.47 234.577C148.47 234.577 160.068 213.301 158.786 198.851C158.786 198.851 150.525 229.818 139.836 240.733C139.331 241.249 151.452 218.118 150.101 206.221C149.874 204.226 145.503 246.202 124.133 246.861C123.415 246.884 129.698 244.658 132.267 237.537C132.432 237.079 129.974 245.82 118.869 247.14C116.839 247.381 111.902 234.812 111.902 234.812C111.902 234.812 117.172 247.244 115.731 247.421C115.731 247.421 100.906 245.366 97.9351 231.446C97.516 229.482 99.9011 243.547 99.9011 243.547C99.9011 243.547 91.0186 241.708 87.1378 225.765C87.119 225.688 89.6702 238.79 89.6702 238.79C89.6702 238.79 76.1262 236.09 78.446 214.598C78.6762 212.465 80.6192 235.356 80.6192 235.356C80.6192 235.356 67.0904 221.764 76.3865 182.216C76.3865 182.216 66.6511 212.747 74.6706 232.71C74.6706 232.71 52.1787 224.983 80.3145 158.849C80.3145 158.849 66.5273 170.631 62.6682 220.807C62.6682 220.807 52.2244 199.367 69.4259 164.327C69.4259 164.327 61.9764 172.192 57.6101 195.47C57.6101 195.47 54.0447 175.312 69.1419 159.511C77.739 150.513 84.5228 138.585 88.2115 130.286C91.9002 121.986 97.7579 107.172 98.667 95.2795C98.667 95.2795 103.936 101.3 104.749 103.199C105.247 104.364 105.895 103.177 107.351 104.118" fill="#010305" fill-rule="nonzero" opacity="1" stroke="#010305" stroke-linecap="butt" stroke-linejoin="round" stroke-width="0.1"/>
<path d="M93.9916 74.4233C93.9916 74.4233 96.9577 66.5136 99.2883 64.183C101.619 61.8524 108.893 53.0952 118.992 52.6009C129.091 52.1065 142.721 59.875 143.569 70.6803C144.416 81.4856 142.901 81.0618 141.792 81.7142C140.683 82.3666 134.029 83.8019 133.637 85.4329C133.637 85.4329 132.267 96.7847 127.635 98.742C127.635 98.742 131.549 93.1965 131.354 77.9955C131.354 77.9955 128.809 83.4105 125.547 84.4543C125.547 84.4543 126.591 85.0415 125.808 80.7356C125.808 80.7356 125.025 83.9324 122.09 85.5634C122.09 85.5634 122.155 84.4543 121.829 82.4971C121.829 82.4971 120.393 86.9335 118.697 87.9121C118.697 87.9121 119.937 80.2137 118.567 77.5389C118.567 77.5389 118.958 85.0415 117.458 87.5206C115.957 89.9998 115.826 90.3912 115.957 92.5441C115.957 92.5441 110.999 88.434 110.607 84.8458C110.607 84.8458 109.172 86.2158 110.02 88.0425C110.02 88.0425 106.236 86.803 105.127 83.7367C105.127 83.7367 104.956 86.5547 105.91 87.3005C105.91 87.3005 103.017 85.0631 102.629 83.6013C102.629 83.6013 101.346 87.8077 102.987 89.8064C102.987 89.8064 96.6084 87.173 95.7005 84.4491C94.7925 81.7252 93.6249 75.9247 93.9916 74.4233Z" fill="#010305" fill-rule="nonzero" opacity="1" stroke="#010305" stroke-linecap="butt" stroke-linejoin="round" stroke-width="0.1"/>
</g>
</g>
<g opacity="1">
<path d="M289.412 150C289.412 86.7545 340.683 35.4839 403.928 35.4839C467.174 35.4839 518.444 86.7545 518.444 150C518.444 213.246 467.174 264.516 403.928 264.516C340.683 264.516 289.412 213.246 289.412 150Z" fill="none" opacity="1" stroke="#010305" stroke-linecap="butt" stroke-linejoin="round" stroke-width="16"/>
<g opacity="1">
<path d="M433.512 245.43C433.512 245.43 442.748 226.832 450.207 225.127C450.207 225.127 444.035 226.314 442.877 228.436C442.877 228.436 462.2 196.25 468.211 193.438C480.814 187.544 481.621 142.956 481.665 136.549C481.665 136.549 477.99 145.564 473.481 150.776C473.481 150.776 474.924 128.384 471.737 120.827C468.651 113.51 466.195 105.693 463.075 103.263C463.075 103.263 466.548 119.624 465.814 123.374C465.081 127.125 452.506 67.8973 423.283 54.5699C423.283 54.5699 433.947 72.2212 434.233 77.5843C434.233 77.5843 431.728 72.2489 427.555 70.2089C427.555 70.2089 439.276 96.823 440.284 103.25C440.284 103.25 437.241 97.0667 430.697 93.128C430.697 93.128 443.195 114.966 441.97 120.312C441.97 120.312 436.06 104.431 430.054 101.341C430.054 101.341 437.729 123.002 437.521 128.226C437.521 128.226 436.896 123.34 433.495 120.454C433.495 120.454 434.38 133.259 437.296 139.464C437.296 139.464 435.799 144.495 435.794 148.08C435.794 148.08 434.03 147.07 433.595 142.116C433.595 142.116 430.535 168.262 431.709 173.226C431.709 173.226 417.677 197.987 421.841 205.852C426.006 213.717 427.664 237.04 433.512 245.43Z" fill="#010305" fill-rule="nonzero" opacity="1" stroke="#010305" stroke-linecap="butt" stroke-linejoin="round" stroke-width="2"/>
<path d="M374.344 245.43C374.344 245.43 365.108 226.832 357.649 225.127C357.649 225.127 363.822 226.314 364.98 228.436C364.98 228.436 345.656 196.25 339.645 193.438C327.042 187.544 326.235 142.956 326.191 136.549C326.191 136.549 329.867 145.564 334.376 150.776C334.376 150.776 332.932 128.384 336.119 120.827C339.206 113.51 341.662 105.693 344.781 103.263C344.781 103.263 341.309 119.624 342.042 123.374C342.775 127.125 355.35 67.8973 384.573 54.5699C384.573 54.5699 373.909 72.2212 373.624 77.5843C373.624 77.5843 376.128 72.2489 380.301 70.2089C380.301 70.2089 368.581 96.823 367.573 103.25C367.573 103.25 370.615 97.0667 377.159 93.128C377.159 93.128 364.661 114.966 365.886 120.312C365.886 120.312 371.797 104.431 377.802 101.341C377.802 101.341 370.128 123.002 370.335 128.226C370.335 128.226 370.96 123.34 374.362 120.454C374.362 120.454 373.476 133.259 370.56 139.464C370.56 139.464 372.057 144.495 372.063 148.08C372.063 148.08 373.826 147.07 374.261 142.116C374.261 142.116 377.321 168.262 376.147 173.226C376.147 173.226 390.18 197.987 386.015 205.852C381.85 213.717 380.192 237.04 374.344 245.43Z" fill="#010305" fill-rule="nonzero" opacity="1" stroke="#010305" stroke-linecap="butt" stroke-linejoin="round" stroke-width="2"/>
</g>
</g>
<g opacity="1">
<path d="M578.968 150C578.968 86.7545 630.238 35.4839 693.484 35.4839C756.729 35.4839 808 86.7545 808 150C808 213.246 756.729 264.516 693.484 264.516C630.238 264.516 578.968 213.246 578.968 150Z" fill="none" opacity="1" stroke="#010305" stroke-linecap="butt" stroke-linejoin="round" stroke-width="16"/>
<g opacity="1">
<path d="M693.482 86.514C662.49 89.6546 679.128 111.699 674.991 114.281C666.422 119.63 679.234 127.609 673.316 126.2C667.399 124.791 662.411 112.227 655.084 106.872C647.757 101.518 643.156 92.9565 637.238 92.9565C631.32 92.9565 627.96 101.413 623.451 101.976C618.942 102.54 610.67 110.914 614.109 122.012C620.309 142.02 640.888 128.48 647.933 132.707C654.977 136.934 674.169 146.785 670.224 152.421C666.279 158.057 683.753 169.881 683.753 169.881C683.753 169.881 683.995 181.455 683.431 190.755C682.868 200.054 693.482 205.122 693.482 205.122C693.482 205.122 704.096 200.054 703.532 190.755C702.968 181.455 703.274 169.881 703.274 169.881C703.274 169.881 720.749 158.057 716.804 152.421C712.858 146.785 732.05 136.934 739.095 132.707C746.14 128.48 766.654 142.02 772.854 122.012C776.293 110.914 768.085 102.54 763.577 101.976C759.068 101.413 755.707 92.9565 749.79 92.9565C743.872 92.9565 739.27 101.518 731.944 106.872C724.617 112.227 719.629 124.791 713.711 126.2C707.793 127.609 720.605 119.63 712.036 114.281C707.899 111.699 724.473 89.6546 693.482 86.514Z" fill="#010305" fill-rule="nonzero" opacity="1" stroke="#010305" stroke-linecap="butt" stroke-linejoin="round" stroke-width="0.1"/>
<path d="M758.015 108.571C758.015 108.571 768.999 120.776 769.914 126.878C770.829 132.98 764.733 169.01 756.718 177.87C756.718 177.87 752.738 140.913 746.478 125.492C743.599 118.401 757.969 108.65 758.015 108.571Z" fill="#010305" fill-rule="nonzero" opacity="1" stroke="#010305" stroke-linecap="butt" stroke-linejoin="round" stroke-width="0.1"/>
<path d="M628.994 108.571C628.994 108.571 618.01 120.776 617.095 126.878C616.18 132.98 622.276 169.01 630.291 177.87C630.291 177.87 634.271 140.913 640.531 125.492C643.41 118.401 629.04 108.65 628.994 108.571Z" fill="#010305" fill-rule="nonzero" opacity="1" stroke="#010305" stroke-linecap="butt" stroke-linejoin="round" stroke-width="0.1"/>
<path d="M693.411 239.202C693.411 239.202 701.484 225.204 704.547 197.414C704.707 195.968 704.613 193.729 703.482 192.73C703.482 192.73 700.715 198.724 693.524 198.592C685.675 198.447 683.536 193.166 683.536 193.166C683.536 193.166 682.071 195.798 682.359 198.034C683.498 206.873 688.564 228.233 693.411 239.202Z" fill="#010305" fill-rule="nonzero" opacity="1" stroke="#010305" stroke-linecap="butt" stroke-linejoin="round" stroke-width="0.1"/>
<path d="M693.546 164.612C693.546 164.612 677.285 125.947 680.209 119.269C683.134 112.591 686.74 100.544 693.253 100.212C699.765 99.8809 706.754 118.694 706.754 118.694C709.389 125.885 698.238 155.515 693.546 164.612Z" fill="#010305" fill-rule="nonzero" opacity="1" stroke="#010305" stroke-linecap="butt" stroke-linejoin="round" stroke-width="0.1"/>
</g>
</g>
</g>
</g>
</svg>
